<?xml version="1.0" standalone="no"?><!DOCTYPE svg PUBLIC "-//W3C//DTD SVG 1.1//EN" "http://www.w3.org/Graphics/SVG/1.1/DTD/svg11.dtd"><svg t="1712807481341" class="icon" viewBox="0 0 1024 1024" version="1.1" xmlns="http://www.w3.org/2000/svg" p-id="1968" xmlns:xlink="http://www.w3.org/1999/xlink" width="200" height="200"><path d="M362.846102 512a13.536866 13.536866 0 0 0 13.536865-13.536866v-54.147463a13.536866 13.536866 0 0 0-27.073731 0v54.147463a13.536866 13.536866 0 0 0 13.536866 13.536866zM660.657148 512a13.536866 13.536866 0 0 0 13.536866-13.536866v-54.147463a13.536866 13.536866 0 0 0-27.073732 0v54.147463a13.536866 13.536866 0 0 0 13.536866 13.536866z" fill="#e31010" stroke="#e31010" stroke-width="40" p-id="1969"></path><path d="M994.476258 660.905523l-103.692392 44.40092v-71.474651l73.64055-36.820275a13.536866 13.536866 0 0 0 7.580644-12.183179v-140.512667a13.536866 13.536866 0 0 0-13.536865-13.536866h-67.684329V177.910153a27.073732 27.073732 0 0 0-16.514976-24.907833l-351.95851-150.800684a27.073732 27.073732 0 0 0-21.388248 0l-351.958509 150.800684a27.073732 27.073732 0 0 0-16.514976 24.907833v252.868652H65.035055a13.536866 13.536866 0 0 0-13.536866 13.536866v140.512667a13.536866 13.536866 0 0 0 7.580645 12.183179l73.64055 36.820275v71.474651L29.026992 660.905523a13.536866 13.536866 0 0 0-17.597925 17.868663l90.155526 202.782249a13.536866 13.536866 0 0 0 14.349077 7.851382l57.667048-8.122119 327.862889 140.512666a27.073732 27.073732 0 0 0 21.388248 0l327.321414-140.783404 56.313361 7.851382a13.536866 13.536866 0 0 0 14.890553-7.851382l91.238475-202.240774a13.536866 13.536866 0 0 0-18.1394-17.868663z m-49.544929-203.052986v118.582944l-54.147463 27.073731v-145.656675zM511.751625 27.109469l351.958509 150.800684v90.426263H476.285037l-175.708518-150.800684z m-433.179704 549.326012v-118.582944h54.147463v145.656675z m81.221194 49.003454v-226.065658l126.975801-49.815666a13.536866 13.536866 0 0 0-10.01728-25.17857l-116.958521 45.754606v-51.981565l126.975801-49.815666a13.536866 13.536866 0 0 0-10.01728-25.17857l-116.958521 45.754606v-111.002299L272.690576 129.448174l193.306443 165.961974h397.713115v421.537999l-19.493086 8.392857a13.536866 13.536866 0 0 1-14.078341-2.165898l-152.425108-126.975801a13.536866 13.536866 0 0 0-8.663594-3.248848h-97.465433a13.536866 13.536866 0 0 0-9.475806 4.06106l-40.610598 40.610597a13.536866 13.536866 0 0 1-19.222349 0l-40.610597-40.610597a13.536866 13.536866 0 0 0-9.475806-4.06106h-98.006908a13.536866 13.536866 0 0 0-8.663594 3.248848l-152.154372 126.975801a13.536866 13.536866 0 0 1-14.07834 2.165898l-19.493087-8.392857z m351.95851 371.451596l-286.981554-122.914741 66.059905-10.01728a13.536866 13.536866 0 0 0 7.580645-3.790323l95.570272-95.570272a13.536866 13.536866 0 0 1 19.222349 0l89.072577 89.072577a13.536866 13.536866 0 0 0 19.222349 0l90.967738-90.967738a13.536866 13.536866 0 0 1 17.056451-1.624424l96.923959 100.714281a13.536866 13.536866 0 0 0 4.873271 1.895161l67.955066 9.475806z m394.464268-146.468887a13.536866 13.536866 0 0 1-14.890552 7.851382l-149.446998-19.222349a13.536866 13.536866 0 0 1-4.873272-1.895162l-101.526493-103.963129a27.073732 27.073732 0 0 0-34.112902 3.248848l-79.59677 79.596771a13.536866 13.536866 0 0 1-19.22235 0l-79.59677-79.596771a27.073732 27.073732 0 0 0-38.173962 0l-98.81912 98.81912a13.536866 13.536866 0 0 1-7.580645 3.790323l-145.656675 20.846773a13.536866 13.536866 0 0 1-14.349078-7.851382l-67.684329-152.425109 126.163589 54.147463a27.073732 27.073732 0 0 0 27.073732-4.061059l151.071422-125.892852a13.536866 13.536866 0 0 1 7.851382-3.519585h76.889397a13.536866 13.536866 0 0 1 9.475806 4.06106l42.235021 42.235021a27.073732 27.073732 0 0 0 38.173962 0l42.235021-42.235021a13.536866 13.536866 0 0 1 9.475806-4.06106h79.326033a13.536866 13.536866 0 0 1 8.663594 3.248848l151.071422 125.892851a27.073732 27.073732 0 0 0 27.073732 4.06106l126.163588-54.147463z" fill="#e31010" stroke="#e31010" stroke-width="40" p-id="1970"></path></svg>