<?xml version="1.0" standalone="no"?><!DOCTYPE svg PUBLIC "-//W3C//DTD SVG 1.1//EN" "http://www.w3.org/Graphics/SVG/1.1/DTD/svg11.dtd"><svg t="1712807464154" class="icon" viewBox="0 0 1024 1024" version="1.1" xmlns="http://www.w3.org/2000/svg" p-id="1741" xmlns:xlink="http://www.w3.org/1999/xlink" width="200" height="200"><path d="M50.424247 366.68063h118.602131v105.424117h-65.890073a13.178015 13.178015 0 0 0-13.178015 13.178014v57.719704a13.178015 13.178015 0 0 0 7.379689 11.860214l71.688399 35.844199v26.35603a13.178015 13.178015 0 0 0 26.35603 0v-250.382278h632.544703v250.382278a13.178015 13.178015 0 0 0 26.356029 0v-26.35603l71.6884-35.844199a13.178015 13.178015 0 0 0 7.379688-11.860214v-57.719704a13.178015 13.178015 0 0 0-13.178015-13.178014h-65.890073v-105.424117h118.602132a13.178015 13.178015 0 0 0 0-26.35603h-118.602132V215.924142a13.178015 13.178015 0 0 0-6.325447-11.333093L518.507327 1.913184a13.178015 13.178015 0 0 0-13.705136 0L175.351825 204.591049a13.178015 13.178015 0 0 0-6.325447 11.333093v124.400458H50.424247a13.178015 13.178015 0 0 0 0 26.35603z m65.890073 168.151466v-36.37132h52.712058v62.72735z m737.96882-36.37132h52.712058v36.37132l-52.712058 26.35603z m-658.900732-267.777258a13.178015 13.178015 0 0 1 6.325447-11.333092l303.094336-186.600688a13.178015 13.178015 0 0 1 13.705136 0l303.094337 186.600688a13.178015 13.178015 0 0 1 6.325447 11.333092v109.641082h-632.544703z" fill="#4ce2fc" stroke="#4ce2fc" stroke-width="40" p-id="1742"></path><path d="M982.109882 620.489192a13.178015 13.178015 0 0 0-5.798327 1.317801l-193.453255 93.300344a13.178015 13.178015 0 0 1-14.232255-1.844922l-90.928301-76.432485a13.178015 13.178015 0 0 0-16.077178 0l-142.058998 102.788514a13.178015 13.178015 0 0 1-15.550057 0l-142.058998-102.788514a13.178015 13.178015 0 0 0-16.077178 0l-90.928301 76.168924a13.178015 13.178015 0 0 1-14.232256 1.844922L46.997963 620.489192a13.178015 13.178015 0 0 0-17.39498 17.922099l137.578473 259.870449a13.178015 13.178015 0 0 0 5.534766 5.534766l121.501295 64.572272a13.178015 13.178015 0 0 0 13.178015 0l46.123051-28.200951 152.33785 81.967251a13.178015 13.178015 0 0 0 12.387333 0l151.547169-81.967251-26.356029-16.077178-126.508941 68.262116a13.178015 13.178015 0 0 1-12.387334 0l-124.664018-68.262116 125.98182-79.068088a13.178015 13.178015 0 0 1 13.968695 0l197.40666 123.346217a13.178015 13.178015 0 0 0 13.178014 0l121.501295-64.572272a13.178015 13.178015 0 0 0 5.534766-5.534766l137.578473-259.870449a13.178015 13.178015 0 0 0-12.914454-17.922099z m-147.330204 263.560292l-112.276685 58.510385-191.081212-119.392812a39.534044 39.534044 0 0 0-41.906087 0l-188.709169 119.392812-112.276685-58.510385-116.75721-221.390646 158.136176 75.905365a39.534044 39.534044 0 0 0 42.433207-5.271206l81.17657-69.579917 133.888629 96.726627a39.534044 39.534044 0 0 0 46.386612 0l135.997111-96.726627 83.285052 69.579917a39.534044 39.534044 0 0 0 42.433208 5.271206l158.136175-75.905365zM313.984539 537.99482a13.178015 13.178015 0 0 0 26.35603 0 26.356029 26.356029 0 0 1 52.712058 0 13.178015 13.178015 0 0 0 26.35603 0 52.712059 52.712059 0 0 0-105.424118 0zM603.900862 511.638791a52.712059 52.712059 0 1 0 52.712058-52.712059 52.712059 52.712059 0 0 0-52.712058 52.712059z m79.068087 0a26.356029 26.356029 0 1 1-26.356029-26.35603 26.356029 26.356029 0 0 1 26.356029 26.35603zM412.556089 157.677317l-131.780146 79.068088a13.178015 13.178015 0 0 0 13.441574 22.666185l131.780147-79.068088a13.178015 13.178015 0 1 0-13.441575-22.666185z" fill="#4ce2fc" stroke="#4ce2fc" stroke-width="40" p-id="1743"></path></svg>